<?xml version="1.0" encoding="UTF-8" standalone="no"?>
<!-- Created with Inkscape (http://www.inkscape.org/) -->

<svg
   width="105.83334mm"
   height="229.63985mm"
   viewBox="0 0 105.83334 229.63985"
   version="1.1"
   id="svg5"
   xml:space="preserve"
   inkscape:version="1.2.1 (9c6d41e410, 2022-07-14)"
   sodipodi:docname="bgtile.svg"
   xmlns:inkscape="http://www.inkscape.org/namespaces/inkscape"
   xmlns:sodipodi="http://sodipodi.sourceforge.net/DTD/sodipodi-0.dtd"
   xmlns="http://www.w3.org/2000/svg"
   xmlns:svg="http://www.w3.org/2000/svg"><sodipodi:namedview
     id="namedview7"
     pagecolor="#ffffff"
     bordercolor="#000000"
     borderopacity="0.25"
     inkscape:showpageshadow="2"
     inkscape:pageopacity="0"
     inkscape:pagecheckerboard="0"
     inkscape:deskcolor="#bfbfbf"
     inkscape:document-units="mm"
     showgrid="false"
     inkscape:zoom="1.4142136"
     inkscape:cx="234.4059"
     inkscape:cy="475.52931"
     inkscape:window-width="1440"
     inkscape:window-height="830"
     inkscape:window-x="-6"
     inkscape:window-y="-6"
     inkscape:window-maximized="1"
     inkscape:current-layer="layer1" /><defs
     id="defs2" /><g
     inkscape:label="Layer 1"
     inkscape:groupmode="layer"
     id="layer1"
     transform="translate(-37.196676,-166.6104)"><g
       id="g22659" /><path
       id="use21446-0"
       style="color:#000000;fill:#000000;stroke-width:0;stroke:#9b0000;stroke-opacity:1;stroke-dasharray:none"
       d="m 39.840543,166.6128 c -0.881285,1.52586 -1.762614,3.05128 -2.643867,4.57713 v 6.70891 c 3.033604,5.25044 6.091638,10.4875 9.083251,15.76032 6.727094,-0.002 13.453533,-0.009 20.180647,-0.0142 l 2.161161,-3.74161 c -6.00277,4.3e-4 -12.006895,0.002 -18.009684,0.002 l 7.926713,-13.72901 -2.161163,-3.74654 -9.007293,15.59863 c -2.594237,-4.49487 -5.187919,-8.98912 -7.782142,-13.48403 1.529033,-2.64421 3.063026,-5.28495 4.586953,-7.93158 z m 9.65662,0 c -1.925877,3.34052 -3.8523,6.6808 -5.777799,10.02169 l 2.161162,3.74649 c 2.649169,-4.58932 5.297369,-9.17877 7.946314,-13.76818 z m 6.441836,0 6.870632,11.89861 h 4.322322 L 60.26132,166.6128 Z m 19.889057,0 c 2.609926,4.50724 5.23204,9.00869 7.801759,13.53788 6.727065,-0.002 13.453521,-0.01 20.180645,-0.0142 l 2.16118,-3.74161 c -6.002792,4.3e-4 -12.004488,-4.1e-4 -18.00728,0 l 5.647976,-9.78157 H 89.28756 l -4.564947,7.90708 c -1.521157,-2.63564 -3.041318,-5.27121 -4.562428,-7.90708 z m 7.255335,0 0.14936,0.25984 c 0.04978,-0.0863 0.09957,-0.17306 0.14936,-0.25984 z m 28.168599,0 c 0.4514,0.7817 0.90356,1.56317 1.35502,2.34492 H 96.756072 l -2.163648,3.74402 h 18.012156 c -2.59556,4.49411 -5.19149,8.9874 -7.78705,13.48156 -6.631578,-0.005 -13.261922,0.0332 -19.891501,-0.0142 -3.361331,5.82706 -6.721428,11.65446 -10.08053,17.48285 l 2.16118,3.74407 c 3.000968,-5.1988 6.001557,-10.39722 9.002383,-15.59616 l 7.926698,13.7266 h 4.322312 l -9.004848,-15.59617 c 5.189792,8e-4 10.381864,0.002 15.571656,0.002 3.31187,5.74537 6.66187,11.46655 9.93349,17.23292 6.72712,-0.002 13.45358,-0.01 20.18065,-0.0142 l 2.15871,-3.74161 c -6.00274,4.2e-4 -12.00444,0.002 -18.00723,0.002 l 7.9267,-13.72902 -2.1636,-3.74407 -9.00485,15.59617 c -2.59423,-4.49486 -5.18789,-8.9891 -7.78213,-13.48402 3.31971,-5.74081 6.60004,-11.50178 9.95801,-17.21822 -0.81319,-1.40726 -1.62704,-2.81477 -2.44051,-4.22184 z m 9.71543,0 c 0.005,0.01 0.01,0.019 0.0142,0.0285 6.72712,-0.002 13.45357,-0.01 20.18065,-0.0142 l 0.009,-0.0142 z m -54.717573,0.25984 c 3.001808,5.19833 6.002842,10.39552 9.004853,15.5937 H 59.40372 l -2.163613,3.74408 h 18.012127 c -2.595559,4.4941 -5.191466,8.98981 -7.787039,13.48396 -6.631562,-0.005 -13.261916,0.0332 -19.89151,-0.0142 -3.36134,5.82707 -6.721404,11.65446 -10.080525,17.48286 l 2.161161,3.74407 c 3.000973,-5.1988 6.001599,-10.39722 9.002392,-15.59617 l 7.926713,13.72907 h 4.324775 l -9.004844,-15.59923 c 5.189792,8e-4 10.3794,0.002 15.569191,0.002 3.311881,5.74536 6.661898,11.46655 9.933517,17.23293 6.727071,-0.002 13.453527,-0.01 20.180639,-0.0142 l 2.161136,-3.74161 c -6.002744,4.2e-4 -12.006856,0.002 -18.009646,0.002 l 7.926702,-13.72902 -2.161184,-3.74407 -9.007266,15.59863 c -2.594231,-4.49486 -5.187941,-8.99157 -7.782155,-13.48643 3.31968,-5.74082 6.600025,-11.50183 9.957987,-17.21827 -3.365739,-5.8246 -6.732096,-11.64731 -10.100107,-17.47063 z m 76.780063,4.31008 c -0.28733,0.49754 -0.57515,0.9947 -0.86249,1.49224 -6.63158,-0.005 -13.26192,0.0332 -19.89151,-0.0142 -3.36137,5.82706 -6.71896,11.65446 -10.07811,17.48285 l 2.16118,3.74408 c 3.00097,-5.1988 6.00161,-10.39723 9.00239,-15.59617 l 7.92428,13.72655 h 4.32478 l -9.00485,-15.5961 c 5.18979,8e-4 10.3794,-5e-5 15.56919,0 0.28544,0.49488 0.56937,0.99029 0.85514,1.48488 z m -8.30161,9.1984 c 2.76739,4.7924 5.53408,9.5837 8.30161,14.37591 v -7.49298 c -1.32679,-2.29423 -2.6524,-4.5887 -3.9793,-6.88293 z m -97.531624,6.878 v 7.49057 c 0.235895,0.40873 0.472218,0.81669 0.708132,1.22513 h -0.708132 v 3.74408 h 0.703234 c -0.234426,0.40588 -0.468804,0.8119 -0.703234,1.21779 v 7.50526 c 2.033977,-3.53477 4.060439,-7.07434 6.125739,-10.59021 -2.040729,-3.53155 -4.083786,-7.06182 -6.125739,-10.59262 z m 60.179316,6.63053 c 3.001778,5.19828 6.002838,10.39552 9.004848,15.59365 H 90.529856 l -2.161176,3.74655 h 18.0097 c -2.59556,4.4941 -5.19151,8.98739 -7.787068,13.4815 -6.631576,-0.005 -13.261914,0.0332 -19.891498,-0.0142 -3.36133,5.82706 -6.718963,11.6545 -10.078079,17.4829 l 2.15871,3.74649 c 3.000987,-5.1988 6.001625,-10.39723 9.002401,-15.59617 l 7.926698,13.7266 h 4.324784 l -9.004849,-15.59615 c 5.189793,8e-4 10.379393,-5e-5 15.569185,0 3.311876,5.74537 6.661876,11.46906 9.933486,17.23539 6.72712,-0.002 13.45358,-0.01 20.1807,-0.0142 l 2.16113,-3.74161 c -6.00274,4.2e-4 -12.00691,-4.2e-4 -18.00969,0 l 7.92674,-13.72655 -2.16118,-3.74649 -9.00731,15.59859 c -2.59424,-4.49487 -5.1879,-8.98912 -7.78213,-13.48397 3.3197,-5.74082 6.60251,-11.5043 9.96047,-17.22069 -3.36574,-5.8246 -6.73461,-11.64735 -10.10258,-17.47063 z m 30.506168,2.08517 -2.16359,3.74408 h 17.31134 v -3.74408 z m 15.14775,4.95698 c -2.36208,4.08983 -4.7242,8.18123 -7.08624,12.27106 -6.63157,-0.005 -13.26192,0.0332 -19.89155,-0.0142 -3.36133,5.82707 -6.72138,11.65451 -10.08048,17.4829 l 2.16113,3.7465 c 3.00097,-5.1988 6.00161,-10.39964 9.00238,-15.59859 l 7.92675,13.72902 h 4.32478 l -9.00485,-15.59858 c 5.18979,8e-4 10.3794,0.002 15.56919,0.002 2.36013,4.09438 4.72217,8.18578 7.07889,12.28088 v -7.51257 c -1.27914,-2.21656 -2.55796,-4.43375 -3.83715,-6.65012 1.27924,-2.21229 2.56275,-4.42065 3.83715,-6.63541 z m -83.006268,6.46633 c 3.001804,5.19833 6.005299,10.39794 9.007295,15.59612 H 53.177515 l -2.161166,3.74408 h 18.009686 c -2.595552,4.4941 -5.191472,8.98739 -7.787045,13.48154 -6.631561,-0.005 -13.261917,0.0332 -19.891514,-0.0142 -1.384538,2.40021 -2.766884,4.80103 -4.1508,7.20143 v 7.50037 c 1.745274,-3.02377 3.490938,-6.04716 5.236283,-9.07099 l 7.924263,13.72655 h 4.324775 l -9.004844,-15.5961 c 5.189791,8e-4 10.379399,-5e-5 15.569186,0 3.311885,5.74532 6.661889,11.46902 9.933508,17.23538 6.727074,-0.002 13.45353,-0.009 20.180649,-0.0142 l 2.161176,-3.74156 c -6.002784,4.3e-4 -12.004438,0.002 -18.007226,0.002 l 7.924233,-13.72901 -2.161133,-3.74649 -9.004847,15.59858 c -2.594261,-4.49486 -5.187939,-8.98906 -7.782166,-13.48396 3.319684,-5.74082 6.600033,-11.50425 9.957998,-17.22069 -3.365742,-5.8246 -6.734577,-11.64731 -10.102564,-17.47063 z m -9.872244,5.55973 -9.004844,15.59859 c -1.316409,-2.28086 -2.633525,-4.56266 -3.949878,-6.84371 v 7.51508 c 0.95123,1.65288 1.916006,3.29831 2.857046,4.95697 6.727089,-0.002 13.453534,-0.01 20.180647,-0.0142 l 2.161161,-3.74402 c -6.002769,4.2e-4 -12.004444,0.002 -18.007233,0.002 l 7.924263,-13.72474 z m 78.350682,7.94861 c 3.00183,5.19833 6.00531,10.39798 9.00731,15.59612 h -15.85344 l -2.16113,3.74408 h 18.00969 c -2.59556,4.4941 -5.1915,8.98986 -7.78705,13.48396 -6.63158,-0.005 -13.26192,0.0332 -19.89151,-0.0142 -3.36133,5.82707 -6.71896,11.65451 -10.07811,17.4829 l 2.16118,3.74403 c 3.00097,-5.1988 5.99914,-10.39717 8.99996,-15.59612 l 7.92671,13.72901 h 4.32477 l -9.00484,-15.59858 c 5.18979,8e-4 10.37939,0.002 15.56918,0.002 3.31188,5.74536 6.66188,11.4666 9.9335,17.23296 1.1239,-2e-4 2.24776,-0.002 3.37161,-0.002 v -9.57576 l -2.27876,3.9474 c -2.59424,-4.49486 -5.19036,-8.98906 -7.7846,-13.48396 3.31965,-5.74082 6.60246,-11.50184 9.96048,-17.21823 -3.3658,-5.8246 -6.73462,-11.6473 -10.10259,-17.47062 z m -37.352304,13.51095 c 3.001824,5.19833 6.005304,10.39552 9.007264,15.5937 H 84.306064 l -2.1636,3.74403 h 18.009696 c -2.59556,4.4941 -5.191456,8.98986 -7.787056,13.484 -6.63153,-0.005 -13.259455,0.0332 -19.889038,-0.0142 -3.361349,5.82702 -6.721413,11.65447 -10.080536,17.48286 l 2.161163,3.74402 c 3.000968,-5.19875 6.0016,-10.39717 9.002406,-15.59612 l 7.924233,13.72902 h 4.32478 l -9.004849,-15.59857 c 5.189792,8e-4 10.379396,0.002 15.569185,0.002 3.31188,5.74532 6.66192,11.46655 9.933542,17.23292 6.72707,-0.002 13.45352,-0.009 20.18064,-0.0142 l 2.16114,-3.74161 c -6.00275,4.3e-4 -12.00444,0.002 -18.00723,0.002 l 7.92428,-13.72901 -2.16118,-3.74407 -9.00485,15.59858 c -2.59423,-4.49486 -5.187894,-8.99153 -7.782126,-13.48643 3.319696,-5.74082 6.600036,-11.50179 9.958006,-17.21823 -3.36574,-5.8246 -6.734614,-11.6473 -10.102582,-17.47062 z m 51.880134,12.9841 c -1.97724,3.42961 -3.95531,6.85879 -5.93218,10.28883 l 2.16118,3.74403 c 1.257,-2.17759 2.51415,-4.35489 3.771,-6.53247 z m -89.230019,0.52438 c 3.001801,5.19833 6.002845,10.39552 9.004842,15.5937 H 46.953757 l -2.163613,3.74403 h 18.012137 c -2.595556,4.4941 -5.191476,8.98986 -7.787045,13.484 -5.940469,-0.004 -11.879759,0.0142 -17.81856,-0.0142 v 7.34358 l 6.936787,12.01378 h 4.324775 l -9.007289,-15.59856 c 5.189792,8e-4 10.381846,0.002 15.571636,0.002 3.311881,5.74541 6.661885,11.4666 9.933509,17.23292 6.727088,-0.002 13.453533,-0.01 20.180652,-0.0142 l 2.158716,-3.74407 c -6.002791,4.3e-4 -12.00444,0.002 -18.007246,0.002 l 7.926714,-13.7266 -2.16118,-3.74649 -9.007274,15.59859 c -2.594242,-4.49487 -5.187921,-8.99158 -7.782148,-13.48643 3.319685,-5.74087 6.600033,-11.50179 9.958007,-17.21823 -3.36575,-5.8246 -6.73459,-11.6473 -10.102573,-17.47062 z m -9.874703,5.55973 -6.728512,11.65361 v 9.57085 c 5.603835,-0.003 11.207465,-0.009 16.811488,-0.0142 l 2.161164,-3.7416 c -6.002772,4.2e-4 -12.004451,0.002 -18.007236,0.002 l 7.926709,-13.72901 z m 78.353152,7.94875 c 3.00181,5.19833 6.00288,10.39551 9.00485,15.59369 H 115.4322 l -2.1636,3.7465 h 18.01211 c -2.59551,4.4941 -5.19145,8.9874 -7.78701,13.48155 -6.63157,-0.005 -13.26191,0.0332 -19.89154,-0.0142 -3.36134,5.82707 -6.721384,11.65693 -10.080488,17.48532 l 2.161136,3.74408 c 3.000968,-5.19881 6.001602,-10.39723 9.002382,-15.59617 l 7.92675,13.72655 h 4.32231 l -9.00485,-15.59612 c 5.18979,8e-4 10.37939,-5e-5 15.56918,0 3.31189,5.74537 6.66189,11.46901 9.9335,17.23538 3.19941,-8e-4 6.39863,-0.005 9.59783,-0.009 V 311.483 c -1.75448,1.9e-4 -3.50869,-1.3e-4 -5.26324,0 l 5.26324,-9.11509 v -7.49303 l -8.50498,14.73362 c -2.59423,-4.49481 -5.18794,-8.98906 -7.78213,-13.48396 3.31966,-5.74082 6.59999,-11.50425 9.95801,-17.2207 -3.36578,-5.8246 -6.73461,-11.64729 -10.10258,-17.47061 z m -37.352311,13.50848 c 3.001771,5.19833 6.002835,10.39798 9.004851,15.59617 H 78.079895 l -2.163646,3.74402 h 18.012159 c -2.59556,4.4941 -5.191496,8.9874 -7.787057,13.48155 -6.631573,-0.005 -13.261916,0.0332 -19.891504,-0.0142 -3.361334,5.82707 -6.721399,11.65446 -10.080519,17.48286 l 2.161161,3.74407 c 3.000967,-5.1988 6.001599,-10.39722 9.002391,-15.59617 l 7.926702,13.7266 h 4.32478 l -9.004837,-15.59617 c 5.189783,8e-4 10.379384,0.002 15.569178,0.002 3.311873,5.74537 6.661873,11.46656 9.933489,17.23293 6.727118,-0.002 13.453578,-0.009 20.180698,-0.0142 l 2.16113,-3.7416 c -6.00274,4.2e-4 -12.00691,0.002 -18.0097,0.002 l 7.92675,-13.72901 -2.16118,-3.74654 -9.007314,15.59863 c -2.594232,-4.49486 -5.187896,-8.98911 -7.782128,-13.48401 3.319696,-5.74082 6.60004,-11.50425 9.958008,-17.22069 -3.365744,-5.8246 -6.732144,-11.64731 -10.100112,-17.47063 z m 56.026021,5.79008 c -3.36134,5.82706 -6.71892,11.65446 -10.07807,17.48285 l 2.16118,3.74649 c 3.00097,-5.1988 6.0016,-10.39964 9.00239,-15.59858 l 0.99236,1.72012 v -7.34847 c -0.69256,-0.003 -1.3853,0.002 -2.07786,-0.002 z m -93.378365,7.7184 c 3.001802,5.19833 6.005298,10.39798 9.00729,15.59617 H 40.727553 l -2.161162,3.74407 h 18.009686 c -2.595556,4.49405 -5.191477,8.98982 -7.787045,13.48397 -3.864738,-0.002 -7.728443,-0.01 -11.592356,-0.01 v 3.75385 c 3.866644,6.3e-4 7.73309,0.002 11.599706,0.002 3.311879,5.74536 6.661883,11.46655 9.933502,17.23292 6.727093,-0.002 13.45353,-0.01 20.180648,-0.0142 l 2.16118,-3.7416 c -6.002788,4.1e-4 -12.00691,0.002 -18.009699,0.002 l 7.926708,-13.72901 -2.161161,-3.74408 -9.004842,15.59858 c -2.594238,-4.49481 -5.190367,-8.99152 -7.784595,-13.48643 3.319681,-5.74077 6.602485,-11.50178 9.960461,-17.21823 -3.365751,-5.8246 -6.734592,-11.64729 -10.102576,-17.47061 z m -9.87225,5.55973 -0.504759,0.87478 v 7.4881 l 2.665921,-4.61634 z m 78.350685,7.95121 c 3.00182,5.19833 6.00288,10.39552 9.00485,15.59371 h -15.85094 l -2.16364,3.74407 h 18.01216 c -2.59556,4.4941 -5.1915,8.98982 -7.78706,13.48397 -6.63158,-0.005 -13.26191,0.0332 -19.891498,-0.0142 -3.361328,5.82706 -6.721432,11.65451 -10.08053,17.48284 l 2.16113,3.74409 c 3.000968,-5.19881 6.001608,-10.39724 9.002432,-15.59612 l 7.926696,13.729 h 4.32478 l -9.00484,-15.59861 c 5.18979,8e-4 10.37939,0.002 15.56918,0.002 3.31187,5.74535 6.66187,11.46662 9.9335,17.23293 5.27405,-0.002 10.54772,-0.01 15.82157,-0.0142 v -3.74407 c -3.82941,0 -7.65993,0.002 -11.48944,0.002 l 7.92669,-13.72901 -2.16113,-3.74408 -9.00732,15.59864 c -2.59423,-4.49488 -5.18789,-8.99158 -7.78213,-13.48644 3.31966,-5.74081 6.60005,-11.50183 9.95801,-17.21828 -3.36573,-5.82459 -6.73214,-11.64729 -10.10011,-17.47061 z m -78.855444,9.52187 v 3.74896 c 3.529165,-0.003 7.058367,-0.005 10.587731,-0.01 l 2.161162,-3.7416 c -4.249307,4.2e-4 -8.499671,-4.3e-4 -12.748893,0 z m 41.503138,3.98666 c 3.001823,5.19828 6.005303,10.39547 9.007266,15.59366 H 71.853677 l -2.16116,3.74653 h 18.009675 c -2.595554,4.49406 -5.191447,8.98736 -7.787054,13.48151 -6.631527,-0.005 -13.261897,0.0332 -19.891496,-0.0142 -3.361334,5.82705 -6.718947,11.65451 -10.078073,17.4829 l 2.161167,3.74647 c 3.000967,-5.19878 6.001594,-10.39962 9.00239,-15.59858 l 7.924259,13.72902 h 4.324765 l -9.00483,-15.5986 c 5.189787,0 10.379376,0.002 15.569167,0.002 3.311924,5.74537 6.661921,11.4666 9.933537,17.23297 6.727072,-0.002 13.453526,-0.01 20.180646,-0.0142 l 2.16113,-3.74402 c -6.00274,0 -12.00444,0.002 -18.007224,0.002 l 7.924284,-13.72657 -2.161188,-3.74648 -9.00484,15.59858 c -2.59424,-4.49486 -5.190365,-8.99153 -7.784597,-13.48644 3.319699,-5.7408 6.602509,-11.50182 9.960469,-17.21826 -3.365736,-5.82456 -6.734606,-11.6473 -10.102577,-17.47058 z m 56.028486,5.79004 c -3.36133,5.82707 -6.72139,11.65446 -10.08053,17.48285 l 2.16118,3.74407 c 3.00096,-5.1988 6.0016,-10.39721 9.00238,-15.59616 l 7.21858,12.50146 v -7.48569 l -3.97436,-6.88534 c 1.32456,1.9e-4 2.64975,-2e-4 3.97436,0 v -3.75384 c -2.76706,6.4e-4 -5.53479,0.0142 -8.30161,-0.009 z m -93.380824,7.71844 c 3.001807,5.19833 6.005302,10.39552 9.007294,15.59367 H 37.196676 v 3.74652 h 13.153191 c -2.59555,4.4941 -5.19147,8.9874 -7.787044,13.48151 -1.78922,-0.002 -3.577126,-0.01 -5.366147,-0.005 v 3.75385 c 1.791202,1.9e-4 3.582314,0 5.373501,0 3.31188,5.74535 6.661883,11.46905 9.933503,17.23538 6.727095,-0.002 13.453538,-0.01 20.180639,-0.0142 l 2.16118,-3.74161 c -6.002775,0 -12.004454,0 -18.007243,0 l 7.926711,-13.72654 -2.163612,-3.7465 -9.004842,15.59859 c -2.594238,-4.49488 -5.187919,-8.98907 -7.782142,-13.48398 3.31968,-5.7408 6.600033,-11.50423 9.958008,-17.22069 -3.36575,-5.82459 -6.734592,-11.64729 -10.102576,-17.47061 z m -4.1508,2.91827 v 7.49304 l 0.710583,1.23002 h 4.324775 z m 72.629274,10.59021 c 3.00178,5.19834 6.00531,10.39795 9.00727,15.59612 h -15.8534 l -2.16118,3.74407 h 18.0097 c -2.59556,4.49411 -5.1915,8.9874 -7.78707,13.48156 -6.63157,-0.005 -13.26191,0.0332 -19.891494,-0.0142 -3.361328,5.82705 -6.718962,11.65452 -10.078064,17.4829 l 2.001863,3.46958 h 0.318637 c 2.948098,-5.1072 5.895204,-10.21433 8.843156,-15.32168 l 7.924232,13.72656 h 4.32478 l -9.004844,-15.59613 c 5.189794,0 10.379394,0.002 15.569184,0.002 3.30348,5.73081 6.64528,11.43734 9.90902,17.18884 h 20.22229 l 1.84998,-3.20254 v -0.50963 c -5.90473,0 -11.80842,0.002 -17.7132,0.002 l 7.92428,-13.729 -2.16118,-3.7465 -9.00485,15.59859 c -2.59424,-4.49487 -5.18789,-8.98907 -7.78212,-13.48397 3.31969,-5.74081 6.60004,-11.50423 9.958,-17.2207 -3.36574,-5.8246 -6.73461,-11.64729 -10.10258,-17.47061 z m 30.50618,2.08519 -2.16114,3.74652 h 4.85892 v -3.74652 z m -103.135454,7.43665 v 3.74407 c 1.453836,-0.002 2.907634,-0.002 4.361526,-0.002 l 2.161162,-3.74159 c -2.174358,1.9e-4 -4.348383,-1.9e-4 -6.522688,0 z m 35.27939,3.98663 c 3.001775,5.19835 6.002838,10.398 9.004848,15.59618 h -15.85099 l -2.163612,3.74402 h 18.012137 c -2.59556,4.49411 -5.191499,8.98987 -7.78706,13.48401 -6.631551,-0.005 -13.261905,0.0332 -19.891498,-0.0142 -1.431282,2.48125 -2.862301,4.96259 -4.292921,7.444 h 4.329673 c 0.348839,-0.60434 0.697429,-1.20881 1.046274,-1.81317 l 1.046279,1.81317 h 4.324776 l -2.126861,-3.68274 c 5.189792,0 10.379399,0.002 15.56921,0.002 0.707307,1.22707 1.412242,2.45478 2.12192,3.68033 h 4.332129 c -1.069899,-1.85396 -2.139938,-3.70827 -3.209883,-5.56213 3.319698,-5.74083 6.600042,-11.5018 9.958007,-17.21824 -3.365742,-5.8246 -6.734563,-11.6473 -10.10258,-17.4706 z m 56.026014,5.79004 c -3.36133,5.82708 -6.71891,11.657 -10.07806,17.48532 l 2.15872,3.74408 c 3.00096,-5.1988 6.0016,-10.39723 9.00237,-15.59612 l 7.92676,13.72656 h 4.32477 l -9.00485,-15.59617 c 3.39941,0 6.79868,0 10.19812,0 v -3.75385 c -4.84284,0.005 -9.68588,0.0237 -14.52783,-0.01 z m -91.305404,7.72092 v 3.58968 c 2.310845,4.00164 4.620959,8.00248 6.93189,12.00402 h -6.93189 v 3.74402 h 6.929439 c -1.425316,2.46793 -2.850361,4.93688 -4.275771,7.4048 h 4.334575 c 1.781587,-3.09406 3.553092,-6.19379 5.361254,-9.27189 -3.365754,-5.8246 -6.732139,-11.64731 -10.100127,-17.47063 z m 103.755374,0 c 0.69246,1.19912 1.3854,2.39793 2.07786,3.59704 v -3.59704 z m -37.34984,13.50848 c 2.54757,4.41173 5.09472,8.82244 7.64244,13.23404 h 4.3297 c -2.55037,-4.41152 -5.10107,-8.82292 -7.65229,-13.23404 z m 30.50617,2.08522 -2.1636,3.74402 h 11.08513 v -3.74402 z m -40.380916,3.4745 -4.430144,7.67432 h 4.324784 l 2.269,-3.93029 z m -56.530788,3.96216 v 0.51456 l 0.296493,-0.51456 c -0.09882,0 -0.197631,-5e-5 -0.296493,0 z" /><circle
       id="path215"
       style="fill:#ff0000;stroke:#ff0000;stroke-width:0.264583"
       cx="-15.001061"
       cy="160.81157"
       r="0" /><circle
       id="path217"
       style="fill:#ff0000;stroke:#ff0000;stroke-width:0.264583"
       cx="56.466808"
       cy="177.27538"
       r="0" /></g></svg>
