<?xml version="1.0" encoding="UTF-8" standalone="no"?>
<!-- Created with Inkscape (http://www.inkscape.org/) -->

<svg
   width="79.375mm"
   height="171.78047mm"
   viewBox="0 0 79.375001 171.78048"
   version="1.1"
   id="svg5"
   xml:space="preserve"
   inkscape:version="1.2.1 (9c6d41e410, 2022-07-14)"
   sodipodi:docname="outlinetile.svg"
   xmlns:inkscape="http://www.inkscape.org/namespaces/inkscape"
   xmlns:sodipodi="http://sodipodi.sourceforge.net/DTD/sodipodi-0.dtd"
   xmlns="http://www.w3.org/2000/svg"
   xmlns:svg="http://www.w3.org/2000/svg"><sodipodi:namedview
     id="namedview7"
     pagecolor="#ffffff"
     bordercolor="#000000"
     borderopacity="0.25"
     inkscape:showpageshadow="2"
     inkscape:pageopacity="0"
     inkscape:pagecheckerboard="0"
     inkscape:deskcolor="#bfbfbf"
     inkscape:document-units="mm"
     showgrid="false"
     inkscape:zoom="1.4142136"
     inkscape:cx="83.085047"
     inkscape:cy="510.17754"
     inkscape:window-width="1440"
     inkscape:window-height="830"
     inkscape:window-x="-6"
     inkscape:window-y="-6"
     inkscape:window-maximized="1"
     inkscape:current-layer="layer1" /><defs
     id="defs2" /><g
     inkscape:label="Layer 1"
     inkscape:groupmode="layer"
     id="layer1"
     transform="translate(-36.938697,-166.35133)"><g
       id="g22659" /><path
       id="use21446-0"
       style="color:#000000;fill:none;stroke:#666666;stroke-width:0.385091"
       d="m 39.104523,166.54674 c -0.657757,1.13884 -1.315547,2.27735 -1.97328,3.41619 v 5.00727 c 2.264164,3.91873 4.546563,7.82747 6.779387,11.76289 5.020843,-0.001 10.041197,-0.007 15.062055,-0.0106 l 1.613007,-2.7926 c -4.480236,3.2e-4 -8.961483,0.001 -13.441732,0.001 l 5.916192,-10.24681 -1.613009,-2.79627 -6.722695,11.64222 c -1.936238,-3.3548 -3.872062,-6.70914 -5.80829,-10.06396 1.141211,-1.97354 2.286124,-3.94449 3.423525,-5.91983 z m 7.207327,0 c -1.4374,2.49323 -2.875207,4.98629 -4.312325,7.4798 l 1.613007,2.79623 c 1.977238,-3.42529 3.953752,-6.85067 5.930822,-10.27603 z m 4.807938,0 5.127974,8.88066 h 3.226014 l -5.127975,-8.88066 z m 14.844423,0 c 1.947948,3.36403 3.904992,6.72373 5.822931,10.10415 5.020822,-0.001 10.041188,-0.007 15.062054,-0.0106 l 1.613021,-2.79259 c -4.480252,3.2e-4 -8.959686,-3.1e-4 -13.439938,0 l 4.215431,-7.30059 h -3.227846 l -3.407099,5.90154 c -1.135333,-1.96714 -2.269923,-3.93423 -3.40522,-5.90154 z m 5.415102,0 0.111476,0.19393 c 0.03715,-0.0644 0.07431,-0.12916 0.111477,-0.19393 z m 21.023953,0 c 0.336907,0.58343 0.674382,1.16669 1.011334,1.75015 H 81.584073 l -1.614863,2.7944 h 13.443577 c -1.937226,3.35423 -3.874728,6.70784 -5.811953,10.06211 -4.949554,-0.004 -9.898186,0.0248 -14.846248,-0.0106 -2.508767,4.3491 -5.016614,8.69844 -7.523717,13.04853 l 1.613021,2.79443 c 2.239806,-3.88019 4.47933,-7.76009 6.71903,-11.64038 l 5.916181,10.24501 h 3.226007 l -6.720871,-11.64038 c 3.873461,6e-4 7.748622,0.001 11.622082,0.001 2.471852,4.28812 4.972163,8.55819 7.413973,12.86199 5.020858,-10e-4 10.041228,-0.007 15.062058,-0.0106 l 1.61118,-2.79259 c -4.48022,3.1e-4 -8.95965,0.001 -13.439903,0.001 l 5.916183,-10.24681 -1.61483,-2.79443 -6.72087,11.64038 c -1.936233,-3.35479 -3.872041,-6.70912 -5.808281,-10.06395 2.477703,-4.28472 4.926015,-8.58449 7.432274,-12.85102 -0.606934,-1.05032 -1.21436,-2.10083 -1.821503,-3.15101 z m 7.251221,0 c 0.0037,0.007 0.0075,0.0142 0.0106,0.0213 5.020863,-0.001 10.041223,-0.007 15.062053,-0.0106 l 0.007,-0.0106 z m -40.839081,0.19393 c 2.240434,3.87983 4.480289,7.75882 6.720874,11.63854 H 53.705722 l -1.614837,2.79443 H 65.53444 c -1.937225,3.35423 -3.87471,6.70965 -5.811945,10.06391 -4.949542,-0.004 -9.898181,0.0248 -14.846254,-0.0106 -2.508774,4.3491 -5.016596,8.69844 -7.523714,13.04853 l 1.613007,2.79443 c 2.23981,-3.88018 4.479361,-7.76008 6.719037,-11.64038 l 5.916192,10.24685 h 3.227845 l -6.720867,-11.64266 c 3.87346,5.9e-4 7.746783,0.001 11.620242,0.001 2.47186,4.28811 4.972183,8.55819 7.413993,12.86199 5.020826,-0.001 10.041192,-0.007 15.062049,-0.0106 l 1.612988,-2.79259 c -4.480216,3.1e-4 -8.961453,10e-4 -13.441703,10e-4 l 5.916183,-10.24681 -1.613024,-2.79442 -6.722675,11.64221 c -1.936234,-3.35479 -3.872078,-6.71096 -5.808299,-10.06575 2.47768,-4.28473 4.926003,-8.58452 7.432256,-12.85105 -2.512057,-4.34726 -5.024576,-8.6931 -7.538329,-13.0394 z m 57.305674,3.21688 c -0.21446,0.37134 -0.42927,0.7424 -0.64373,1.11375 -4.94956,-0.004 -9.89819,0.0248 -14.84626,-0.0106 -2.508793,4.34909 -5.014768,8.69844 -7.521908,13.04852 l 1.613021,2.79444 c 2.239808,-3.88018 4.47937,-7.76009 6.719037,-11.64038 l 5.91438,10.24497 h 3.22784 l -6.72087,-11.64033 c 3.87346,6e-4 7.74678,-4e-5 11.62024,0 0.21304,0.36936 0.42496,0.73912 0.63825,1.10826 z m -6.196,6.86533 c 2.06547,3.57686 4.13042,7.1529 6.196,10.72962 v -5.59247 c -0.99027,-1.71232 -1.97965,-3.42483 -2.97,-5.13715 z m -72.793837,5.13347 v 5.59067 c 0.176062,0.30506 0.352445,0.60955 0.528522,0.91439 h -0.528522 v 2.79444 h 0.524866 c -0.174966,0.30293 -0.349897,0.60597 -0.524866,0.90891 v 5.60164 c 1.518081,-2.63822 3.030554,-5.28002 4.572014,-7.90413 -1.523121,-2.63581 -3.04798,-5.27067 -4.572014,-7.90592 z m 44.915514,4.94877 c 2.240411,3.8798 4.480287,7.75882 6.720871,11.6385 H 76.937066 l -1.613018,2.79628 h 13.441744 c -1.937226,3.35422 -3.874743,6.70784 -5.811967,10.06207 -4.949552,-0.004 -9.89818,0.0248 -14.846245,-0.0106 -2.508767,4.3491 -5.014774,8.69847 -7.521888,13.04856 l 1.611177,2.79624 c 2.239821,-3.88018 4.479381,-7.76009 6.719044,-11.64038 l 5.916181,10.245 h 3.227852 l -6.720871,-11.64036 c 3.873461,6e-4 7.746777,-4e-5 11.620238,0 2.471856,4.28812 4.972166,8.56006 7.413969,12.86383 5.020863,-10e-4 10.041228,-0.007 15.062098,-0.0106 l 1.61298,-2.79259 c -4.48021,3.1e-4 -8.961493,-3.2e-4 -13.441736,0 l 5.916213,-10.24497 -1.613022,-2.79623 -6.722708,11.64218 c -1.93624,-3.3548 -3.872048,-6.70913 -5.808281,-10.06391 2.477696,-4.28473 4.927859,-8.58637 7.43411,-12.85286 -2.512058,-4.34726 -5.026452,-8.69313 -7.540175,-13.0394 z m 22.768623,1.55629 -1.61482,2.79444 h 12.92052 v -2.79444 z m 11.3057,3.6997 c -1.76297,3.05249 -3.52596,6.10616 -5.2889,9.15865 -4.94955,-0.004 -9.89818,0.0248 -14.846283,-0.0106 -2.508766,4.3491 -5.016578,8.69847 -7.52368,13.04856 l 1.612984,2.79624 c 2.239808,-3.88018 4.479369,-7.76189 6.719028,-11.64218 l 5.916221,10.24681 h 3.22785 l -6.720875,-11.64218 c 3.873455,6e-4 7.746785,0.001 11.620245,0.001 1.76151,3.05589 3.52444,6.10955 5.28341,9.16598 v -5.6071 c -0.9547,-1.65435 -1.90917,-3.30917 -2.8639,-4.96339 0.95477,-1.65117 1.91273,-3.2994 2.8639,-4.95241 z m -61.952673,4.82622 c 2.240431,3.87983 4.482123,7.76062 6.722697,11.64034 H 49.058723 l -1.613011,2.79444 h 13.441734 c -1.93722,3.35422 -3.874714,6.70784 -5.81195,10.0621 -4.949541,-0.004 -9.898182,0.0248 -14.846257,-0.0106 -1.033365,1.79142 -2.065095,3.5833 -3.097996,5.37487 v 5.59799 c 1.302605,-2.25683 2.605501,-4.51337 3.908159,-6.77024 l 5.914363,10.24497 h 3.227845 l -6.720867,-11.64033 c 3.873459,6e-4 7.746782,-4e-5 11.620238,0 2.471863,4.28808 4.972177,8.56003 7.413987,12.86382 5.020828,-0.001 10.041194,-0.007 15.062056,-0.0106 l 1.613018,-2.79255 c -4.480246,3.2e-4 -8.959648,0.001 -13.439897,0.001 l 5.914341,-10.2468 -1.612986,-2.79624 -6.72087,11.64218 c -1.936256,-3.35479 -3.872077,-6.70909 -5.808308,-10.06391 2.477684,-4.28472 4.92601,-8.58633 7.432265,-12.85286 -2.51206,-4.34725 -5.026428,-8.6931 -7.540163,-13.0394 z m -7.368261,4.14957 -6.720867,11.64218 c -0.982517,-1.70234 -1.965561,-3.40539 -2.948036,-5.10788 v 5.60897 c 0.709961,1.23364 1.430032,2.46173 2.132388,3.69969 5.020839,-0.001 10.041198,-0.007 15.062055,-0.0106 l 1.613007,-2.79439 c -4.480235,3.1e-4 -8.959653,0.001 -13.439903,0.001 l 5.914364,-10.24361 z m 58.477924,5.93253 c 2.24045,3.87984 4.48213,7.76065 6.7227,11.64034 h -11.83239 l -1.612984,2.79444 h 13.441734 c -1.93722,3.35422 -3.87473,6.70968 -5.81195,10.06391 -4.94956,-0.004 -9.898186,0.0248 -14.846255,-0.0106 -2.508767,4.3491 -5.014772,8.69847 -7.521912,13.04856 l 1.613021,2.7944 c 2.239808,-3.88018 4.477526,-7.76005 6.717222,-11.64034 l 5.91619,10.2468 h 3.227844 l -6.720867,-11.64218 c 3.873459,6e-4 7.746777,0.002 11.620237,0.002 2.47186,4.28811 4.97217,8.55822 7.41398,12.86201 0.83883,-1.5e-4 1.67764,-0.001 2.51644,-0.001 v -7.14698 l -1.70078,2.94619 c -1.93624,-3.35479 -3.87389,-6.70909 -5.81013,-10.06391 2.47766,-4.28472 4.92782,-8.58453 7.43412,-12.85102 -2.5121,-4.34726 -5.02646,-8.69309 -7.54018,-13.0394 z m -27.878319,10.08405 c 2.240445,3.87984 4.482126,7.75882 6.722673,11.63854 H 72.291868 l -1.614827,2.7944 h 13.441741 c -1.937226,3.35422 -3.874702,6.70968 -5.811958,10.06393 -4.949517,-0.004 -9.896344,0.0248 -14.844409,-0.0106 -2.508781,4.34906 -5.016602,8.69844 -7.523722,13.04853 l 1.613008,2.79439 c 2.239807,-3.88015 4.479363,-7.76005 6.719048,-11.64034 l 5.914341,10.24681 h 3.227849 l -6.720871,-11.64217 c 3.87346,5.9e-4 7.74678,0.001 11.620238,0.001 2.471859,4.28809 4.972199,8.55819 7.414011,12.86199 5.020825,-10e-4 10.041188,-0.007 15.062053,-0.0106 l 1.61299,-2.7926 c -4.480222,3.3e-4 -8.959652,10e-4 -13.439902,10e-4 l 5.914376,-10.24681 -1.613021,-2.79442 -6.720872,11.64217 c -1.936233,-3.35479 -3.872044,-6.71093 -5.808278,-10.06575 2.477693,-4.28472 4.926012,-8.58449 7.432271,-12.85102 -2.512058,-4.34725 -5.026456,-8.69309 -7.540177,-13.03939 z m 38.721329,9.69083 c -1.47574,2.55973 -2.95209,5.11914 -4.42755,7.67919 l 1.61302,2.7944 c 0.93817,-1.62527 1.87646,-3.25032 2.81453,-4.87558 z m -66.59784,0.39138 c 2.240429,3.87983 4.480292,7.75882 6.720866,11.63854 H 44.413551 l -1.614838,2.7944 h 13.443563 c -1.937222,3.35422 -3.874717,6.70968 -5.811949,10.06393 -4.433737,-0.003 -8.866593,0.0106 -13.299084,-0.0106 v 5.48097 l 5.177349,8.96662 h 3.227845 l -6.722692,-11.64216 c 3.87346,5.9e-4 7.748608,0.001 11.622067,0.001 2.47186,4.28815 4.972173,8.55823 7.413987,12.86198 5.020838,-0.001 10.041197,-0.007 15.062058,-0.0106 l 1.611183,-2.79443 c -4.480252,3.2e-4 -8.95965,0.001 -13.439913,0.001 l 5.916193,-10.245 -1.613021,-2.79624 -6.722681,11.64219 c -1.936242,-3.3548 -3.872064,-6.71097 -5.808294,-10.06575 2.477684,-4.28477 4.926009,-8.5845 7.432271,-12.85103 -2.512066,-4.34725 -5.026438,-8.69309 -7.54017,-13.03939 z m -7.370096,4.14957 -5.021901,8.6978 v 7.14332 c 4.182485,-0.002 8.364818,-0.007 12.547444,-0.0106 l 1.61301,-2.79259 c -4.480237,3.1e-4 -8.959659,0.001 -13.439905,0.001 l 5.916189,-10.2468 z m 58.479766,5.93264 c 2.24043,3.87983 4.48031,7.75881 6.72087,11.63853 H 95.523213 l -1.614827,2.79624 h 13.443544 c -1.93719,3.35422 -3.8747,6.70785 -5.81193,10.06211 -4.949543,-0.004 -9.898172,0.0248 -14.846271,-0.0106 -2.508775,4.3491 -5.016582,8.70028 -7.523687,13.05036 l 1.612988,2.79444 c 2.239807,-3.88019 4.479364,-7.76009 6.71903,-11.64038 l 5.91622,10.24497 h 3.226005 l -6.720872,-11.64034 c 3.873459,6e-4 7.746776,-4e-5 11.620237,0 2.47186,4.28812 4.97217,8.56002 7.41398,12.86382 2.38791,-6e-4 4.77569,-0.004 7.16345,-0.007 v -2.79808 c -1.30948,1.5e-4 -2.61875,-9e-5 -3.92828,0 l 3.92828,-6.80315 v -5.59251 l -6.34779,10.99661 c -1.93623,-3.35475 -3.87208,-6.70909 -5.80828,-10.06391 2.47766,-4.28472 4.92597,-8.58632 7.43227,-12.85286 -2.51209,-4.34726 -5.02645,-8.69309 -7.54017,-13.03939 z m -27.878324,10.08221 c 2.240406,3.87983 4.480284,7.76065 6.720873,11.64037 H 67.644897 l -1.614862,2.7944 h 13.443579 c -1.937226,3.35422 -3.874732,6.70784 -5.811958,10.0621 -4.94955,-0.004 -9.898182,0.0248 -14.84625,-0.0106 -2.50877,4.34909 -5.016592,8.69843 -7.523709,13.04853 l 1.613007,2.79442 c 2.239805,-3.88018 4.479361,-7.76008 6.719036,-11.64037 l 5.916184,10.245 h 3.227849 L 62.04691,274.69359 c 3.873454,6e-4 7.746771,0.001 11.620233,0.001 2.471854,4.28813 4.972164,8.5582 7.413972,12.862 5.020861,-0.001 10.041231,-0.007 15.062093,-0.0106 l 1.612984,-2.79259 c -4.480213,3.2e-4 -8.961494,10e-4 -13.441744,10e-4 l 5.91622,-10.24681 -1.613021,-2.79627 -6.722711,11.64222 c -1.936235,-3.35479 -3.872045,-6.70913 -5.80828,-10.06395 2.477693,-4.28472 4.926015,-8.58633 7.432272,-12.85286 -2.512061,-4.34725 -5.024612,-8.6931 -7.538333,-13.0394 z m 41.815654,4.32149 c -2.50877,4.34909 -5.01474,8.69844 -7.52188,13.04852 l 1.61302,2.79624 c 2.23981,-3.88019 4.47936,-7.76189 6.71904,-11.64218 l 0.74066,1.28383 v -5.48461 c -0.5169,-0.002 -1.03394,0.001 -1.55084,-0.001 z m -69.693999,5.76071 c 2.240429,3.87984 4.482122,7.76065 6.722693,11.64038 H 39.766553 l -1.613008,2.79443 h 13.441733 c -1.937222,3.35419 -3.874717,6.70965 -5.811949,10.06391 -2.884491,-10e-4 -5.768211,-0.007 -8.652086,-0.007 v 2.80173 c 2.885913,4.7e-4 5.771679,0.001 8.657572,0.001 2.471858,4.28812 4.972172,8.55819 7.413982,12.86199 5.020842,-0.002 10.041194,-0.007 15.062055,-0.0106 l 1.613021,-2.79259 c -4.480249,3.1e-4 -8.961493,0.001 -13.441743,0.001 l 5.916189,-10.24681 -1.613008,-2.79443 -6.720865,11.64217 c -1.936239,-3.35475 -3.87389,-6.71092 -5.810121,-10.06575 2.477681,-4.28468 4.927839,-8.58448 7.434103,-12.85102 -2.512067,-4.34725 -5.026439,-8.69308 -7.540172,-13.03939 z m -7.368266,4.14957 -0.376732,0.6529 v 5.58883 l 1.98974,-3.44546 z m 58.477922,5.93448 c 2.240443,3.87983 4.480313,7.75881 6.720873,11.63854 H 90.87624 l -1.614857,2.79443 h 13.443577 c -1.93722,3.35422 -3.874732,6.70965 -5.811957,10.06391 -4.949555,-0.004 -9.898177,0.0248 -14.846246,-0.0106 -2.508765,4.3491 -5.016617,8.69848 -7.523717,13.04852 l 1.612983,2.79444 c 2.239807,-3.88019 4.479369,-7.7601 6.719068,-11.64034 l 5.916179,10.2468 h 3.227849 l -6.720865,-11.6422 c 3.873459,5.9e-4 7.746776,10e-4 11.620234,10e-4 2.471852,4.28811 4.972162,8.55824 7.413982,12.86199 3.93635,-10e-4 7.87241,-0.007 11.80861,-0.0106 v -2.79442 c -2.85813,0 -5.71708,0.001 -8.57528,0.001 l 5.91618,-10.2468 -1.61299,-2.79444 -6.72271,11.64222 c -1.93623,-3.3548 -3.87204,-6.71097 -5.808282,-10.06576 2.477662,-4.28472 4.926022,-8.58452 7.432272,-12.85105 -2.51205,-4.34725 -5.02461,-8.69309 -7.53833,-13.03939 z m -58.854654,7.10675 v 2.79808 c 2.634032,-0.002 5.268092,-0.004 7.902273,-0.007 l 1.613007,-2.79259 c -3.171518,3.1e-4 -6.343825,-3.2e-4 -9.51528,0 z m 30.976337,2.97549 c 2.240445,3.8798 4.482126,7.75878 6.722675,11.63851 H 62.997888 l -1.613006,2.79626 h 13.441725 c -1.937221,3.35419 -3.874695,6.70782 -5.811956,10.06208 -4.949515,-0.004 -9.898167,0.0248 -14.846244,-0.0106 -2.508769,4.34909 -5.014762,8.69848 -7.521884,13.04856 l 1.613012,2.79622 c 2.239806,-3.88017 4.479358,-7.76187 6.719036,-11.64218 l 5.91436,10.24681 h 3.227838 l -6.720857,-11.64219 c 3.873456,0 7.746765,10e-4 11.620224,10e-4 2.471892,4.28813 4.9722,8.55823 7.414008,12.86203 5.020827,-0.002 10.041192,-0.007 15.062054,-0.0106 l 1.612984,-2.79439 c -4.480213,0 -8.95965,10e-4 -13.439896,10e-4 l 5.914379,-10.24498 -1.613027,-2.79623 -6.720864,11.64218 c -1.936241,-3.35479 -3.873888,-6.71093 -5.810123,-10.06576 2.477695,-4.28471 4.927858,-8.58451 7.434109,-12.85104 -2.512055,-4.34723 -5.026449,-8.6931 -7.540172,-13.03937 z m 41.8175,4.32146 c -2.50877,4.3491 -5.01659,8.69844 -7.52372,13.04853 l 1.61302,2.79443 c 2.2398,-3.88019 4.47936,-7.76008 6.71903,-11.64038 l 5.38767,9.33061 v -5.58703 l -2.96631,-5.13895 c 0.9886,1.4e-4 1.97767,-1.5e-4 2.96631,0 v -2.80172 c -2.06523,4.8e-4 -4.13096,0.0106 -6.196,-0.007 z m -69.695841,5.76075 c 2.240433,3.87983 4.482125,7.75881 6.722696,11.63851 h -9.820692 v 2.79626 h 9.817033 c -1.937218,3.35422 -3.874713,6.70785 -5.811949,10.06208 -1.335404,-0.002 -2.669828,-0.007 -4.005084,-0.004 v 2.80173 c 1.336883,1.4e-4 2.6737,0 4.010573,0 2.471859,4.28811 4.972172,8.56006 7.413983,12.86382 5.020843,-10e-4 10.0412,-0.007 15.062048,-0.0106 l 1.613022,-2.7926 c -4.48024,0 -8.959661,0 -13.43991,0 l 5.91619,-10.24496 -1.614836,-2.79624 -6.720866,11.64219 c -1.936239,-3.35481 -3.872062,-6.7091 -5.80829,-10.06393 2.477681,-4.28471 4.926009,-8.58631 7.432272,-12.85285 -2.512066,-4.34725 -5.026439,-8.69309 -7.540172,-13.03939 z m -3.097996,2.17808 v 5.59252 l 0.530351,0.91804 h 3.227845 z m 54.207682,7.90413 c 2.240412,3.87984 4.482131,7.76062 6.722678,11.64034 H 86.229238 l -1.613021,2.79443 h 13.441744 c -1.937226,3.35423 -3.874735,6.70784 -5.811968,10.06211 -4.949548,-0.004 -9.898177,0.0248 -14.846242,-0.0106 -2.508766,4.34909 -5.014774,8.69849 -7.521878,13.04856 l 1.494113,2.58956 h 0.237819 c 2.200346,-3.81181 4.399952,-7.62358 6.600189,-11.43551 l 5.914341,10.24498 h 3.227848 l -6.720867,-11.64035 c 3.873462,0 7.746778,10e-4 11.620237,10e-4 2.46559,4.27726 4.95978,8.53639 7.395709,12.82909 H 114.7404 l 1.38075,-2.39026 v -0.38036 c -4.40706,0 -8.81335,10e-4 -13.22045,10e-4 l 5.91438,-10.2468 -1.61302,-2.79624 -6.72087,11.64219 c -1.936244,-3.3548 -3.872044,-6.7091 -5.808277,-10.06392 2.477689,-4.28472 4.926015,-8.58631 7.432267,-12.85286 -2.512059,-4.34726 -5.026453,-8.69309 -7.540176,-13.03939 z m 22.768635,1.5563 -1.61299,2.79626 h 3.62651 v -2.79626 z m -76.976317,5.55043 v 2.79443 c 1.085087,-0.002 2.170145,-0.002 3.255274,-0.002 l 1.613008,-2.79257 c -1.622857,1.4e-4 -3.245465,-1.5e-4 -4.868282,0 z m 26.331172,2.97546 c 2.240409,3.87985 4.480287,7.76067 6.720871,11.64039 H 58.35272 l -1.614837,2.79439 h 13.443563 c -1.937226,3.35423 -3.874734,6.70969 -5.811961,10.06395 -4.949533,-0.004 -9.898173,0.0248 -14.846245,-0.0106 -1.068253,1.85191 -2.13631,3.70388 -3.20407,5.55591 h 3.231501 c 0.26036,-0.45105 0.520534,-0.90221 0.780898,-1.35328 l 0.780902,1.35328 h 3.227846 L 52.75291,335.1906 c 3.87346,0 7.746782,10e-4 11.620256,10e-4 0.527907,0.91584 1.054043,1.83215 1.58372,2.74686 h 3.233333 c -0.798531,-1.38373 -1.597167,-2.76771 -2.395732,-4.15136 2.477694,-4.28474 4.926016,-8.5845 7.432271,-12.85103 -2.51206,-4.34726 -5.026417,-8.6931 -7.540175,-13.03938 z m 41.815655,4.32147 c -2.50877,4.3491 -5.01474,8.70033 -7.521878,13.05036 l 1.611185,2.79444 c 2.239803,-3.88018 4.479363,-7.76009 6.719023,-11.64034 l 5.91623,10.24497 h 3.22784 l -6.72088,-11.64038 c 2.53719,0 5.07428,0 7.61149,0 v -2.80172 c -3.61451,0.004 -7.22917,0.0177 -10.84301,-0.007 z m -68.146827,5.76259 v 2.6792 c 1.724725,2.98667 3.448905,5.97274 5.173694,8.95934 h -5.173694 v 2.79439 h 5.171865 c -1.063801,1.84197 -2.127399,3.6847 -3.19127,5.52666 h 3.235159 c 1.329708,-2.30929 2.65189,-4.62281 4.001433,-6.92018 -2.512069,-4.34726 -5.024609,-8.69311 -7.538345,-13.03941 z m 77.438997,0 c 0.51683,0.89498 1.03401,1.78973 1.55084,2.68469 v -2.68469 z m -27.876474,10.08221 c 1.901408,3.29274 3.802502,6.58473 5.704022,9.87738 h 3.23152 c -1.903497,-3.29259 -3.807241,-6.58509 -5.711373,-9.87738 z m 22.768624,1.55633 -1.61483,2.79439 h 8.27352 v -2.79439 z m -30.138753,2.59323 -3.306488,5.72782 h 3.227852 l 1.693493,-2.93342 z m -42.192394,2.9572 v 0.38405 l 0.22129,-0.38405 c -0.07375,0 -0.147504,-3e-5 -0.22129,0 z" /><circle
       id="path215"
       style="fill:#ff0000;stroke:#ff0000;stroke-width:0.264583"
       cx="-15.001061"
       cy="160.81157"
       r="0" /><circle
       id="path217"
       style="fill:#ff0000;stroke:#ff0000;stroke-width:0.264583"
       cx="56.466808"
       cy="177.27538"
       r="0" /></g></svg>
